<svg width="21" height="20" viewBox="0 0 21 20" fill="none" xmlns="http://www.w3.org/2000/svg">
<g id="icn favorite" clip-path="url(#clip0_1_177)">
<path id="Vector" d="M0.5 1.63333C0.5 1.46536 0.566728 1.30427 0.685505 1.1855C0.804281 1.06673 0.965377 1 1.13335 1H3.03341C3.17469 1.00004 3.3119 1.04731 3.42322 1.1343C3.53454 1.22129 3.61357 1.34299 3.64776 1.48007L4.16078 3.53333H18.8672C18.9602 3.53342 19.0521 3.55398 19.1362 3.59356C19.2204 3.63315 19.2948 3.69077 19.3541 3.76235C19.4135 3.83393 19.4564 3.9177 19.4797 4.00772C19.5031 4.09774 19.5063 4.19179 19.4892 4.2832L17.5891 14.4165C17.562 14.5617 17.4849 14.6927 17.3714 14.7871C17.2578 14.8815 17.1148 14.9332 16.9672 14.9333H5.56682C5.41917 14.9332 5.2762 14.8815 5.16263 14.7871C5.04907 14.6927 4.97204 14.5617 4.94487 14.4165L3.04608 4.3022L2.5394 2.26667H1.13335C0.965377 2.26667 0.804281 2.19994 0.685505 2.08117C0.566728 1.96239 0.5 1.8013 0.5 1.63333ZM4.42932 4.8L6.09251 13.6667H16.4415L18.1047 4.8H4.42932ZM6.83353 14.9333C6.16163 14.9333 5.51724 15.2002 5.04214 15.6753C4.56703 16.1504 4.30012 16.7948 4.30012 17.4667C4.30012 18.1385 4.56703 18.7829 5.04214 19.258C5.51724 19.7331 6.16163 20 6.83353 20C7.50543 20 8.14982 19.7331 8.62492 19.258C9.10003 18.7829 9.36694 18.1385 9.36694 17.4667C9.36694 16.7948 9.10003 16.1504 8.62492 15.6753C8.14982 15.2002 7.50543 14.9333 6.83353 14.9333ZM15.7005 14.9333C15.0286 14.9333 14.3842 15.2002 13.9091 15.6753C13.434 16.1504 13.1671 16.7948 13.1671 17.4667C13.1671 18.1385 13.434 18.7829 13.9091 19.258C14.3842 19.7331 15.0286 20 15.7005 20C16.3724 20 17.0168 19.7331 17.4919 19.258C17.967 18.7829 18.2339 18.1385 18.2339 17.4667C18.2339 16.7948 17.967 16.1504 17.4919 15.6753C17.0168 15.2002 16.3724 14.9333 15.7005 14.9333ZM6.83353 16.2C7.16948 16.2 7.49167 16.3335 7.72923 16.571C7.96678 16.8085 8.10023 17.1307 8.10023 17.4667C8.10023 17.8026 7.96678 18.1248 7.72923 18.3623C7.49167 18.5999 7.16948 18.7333 6.83353 18.7333C6.49758 18.7333 6.17539 18.5999 5.93783 18.3623C5.70028 18.1248 5.56682 17.8026 5.56682 17.4667C5.56682 17.1307 5.70028 16.8085 5.93783 16.571C6.17539 16.3335 6.49758 16.2 6.83353 16.2ZM15.7005 16.2C16.0364 16.2 16.3586 16.3335 16.5962 16.571C16.8337 16.8085 16.9672 17.1307 16.9672 17.4667C16.9672 17.8026 16.8337 18.1248 16.5962 18.3623C16.3586 18.5999 16.0364 18.7333 15.7005 18.7333C15.3645 18.7333 15.0423 18.5999 14.8048 18.3623C14.5672 18.1248 14.4338 17.8026 14.4338 17.4667C14.4338 17.1307 14.5672 16.8085 14.8048 16.571C15.0423 16.3335 15.3645 16.2 15.7005 16.2Z" fill="#252B42"/>
</g>
<defs>
<clipPath id="clip0_1_177">
<rect width="20" height="20" fill="white" transform="translate(0.5)"/>
</clipPath>
</defs>
</svg>
