<svg width="21" height="20" viewBox="0 0 21 20" fill="none" xmlns="http://www.w3.org/2000/svg">
<g id="icn favorite">
<path id="Vector" d="M13 10C13 10.663 12.7366 11.2989 12.2678 11.7678C11.7989 12.2366 11.163 12.5 10.5 12.5C9.83696 12.5 9.20107 12.2366 8.73223 11.7678C8.26339 11.2989 8 10.663 8 10C8 9.33696 8.26339 8.70107 8.73223 8.23223C9.20107 7.76339 9.83696 7.5 10.5 7.5C11.163 7.5 11.7989 7.76339 12.2678 8.23223C12.7366 8.70107 13 9.33696 13 10Z" fill="black"/>
<path id="Vector_2" d="M2.5 10C2.5 10 5.5 4.5 10.5 4.5C15.5 4.5 18.5 10 18.5 10C18.5 10 15.5 15.5 10.5 15.5C5.5 15.5 2.5 10 2.5 10ZM10.5 13.5C11.4283 13.5 12.3185 13.1313 12.9749 12.4749C13.6313 11.8185 14 10.9283 14 10C14 9.07174 13.6313 8.1815 12.9749 7.52513C12.3185 6.86875 11.4283 6.5 10.5 6.5C9.57174 6.5 8.6815 6.86875 8.02513 7.52513C7.36875 8.1815 7 9.07174 7 10C7 10.9283 7.36875 11.8185 8.02513 12.4749C8.6815 13.1313 9.57174 13.5 10.5 13.5Z" fill="black"/>
</g>
</svg>
